<svg xmlns="http://www.w3.org/2000/svg" xmlns:xlink="http://www.w3.org/1999/xlink" viewBox="0 0 100 100"><defs><linearGradient id="a" x1="22.53" y1="22.53" x2="77.47" y2="77.47" gradientUnits="userSpaceOnUse"><stop offset="0" stop-color="#4ebeed"/><stop offset="0.17" stop-color="#45b7e9"/><stop offset="0.45" stop-color="#2ba5dd"/><stop offset="0.57" stop-color="#1e9cd7"/><stop offset="0.87" stop-color="#0075be"/><stop offset="0.99" stop-color="#005b97"/></linearGradient><linearGradient id="b" x1="29.91" y1="50" x2="70.09" y2="50" xlink:href="#a"/></defs><title>logo</title><path d="M50,16.94,78.63,33.47V66.53L50,83.06,21.37,66.53V33.47L50,16.94M50,10a6.1,6.1,0,0,0-3,.82l-29.36,17a6.1,6.1,0,0,0-3,5.28V67a6.1,6.1,0,0,0,3,5.28L47,89.18a6.1,6.1,0,0,0,6.1,0l29.36-17a6.1,6.1,0,0,0,3-5.28V33a6.1,6.1,0,0,0-3-5.28L53,10.82A6.1,6.1,0,0,0,50,10Z" fill="url(#a)"/><polygon points="29.91 38.4 29.91 61.6 50 73.2 70.09 61.6 70.09 38.4 50 26.8 29.91 38.4" fill="url(#b)"/></svg>